<?xml version="1.0" encoding="UTF-8"?>
<svg width="411px" height="128px" viewBox="0 0 411 128" version="1.1" xmlns="http://www.w3.org/2000/svg" xmlns:xlink="http://www.w3.org/1999/xlink">
    <!-- Generator: Sketch 52.6 (67491) - http://www.bohemiancoding.com/sketch -->
    <title>Group 3</title>
    <desc>Created with Sketch.</desc>
    <g id="Page-1" stroke="none" stroke-width="1" fill="none" fill-rule="evenodd">
        <g id="Group-3" transform="translate(-2.000000, 0.000000)">
            <g id="Group">
                <path d="M156.08,75.48 L156.08,60.07 C156.08,48.63 163.55,42.48 174.99,42.48 C186.71,42.48 193.9,48.25 193.9,60.07 L193.9,75.48 C193.9,87.39 187.65,94.01 174.9,94.01 C162.52,94.01 156.09,87.86 156.09,75.48 M182.75,77.48 L182.75,58.96 C182.75,54.96 180.38,51.96 175,51.96 C170,51.96 167.24,54.96 167.24,58.96 L167.24,77.46 C167.24,82.57 170.74,84.55 174.9,84.55 C179.06,84.55 182.75,82.28 182.75,77.46" id="Shape" fill="#55575A" fill-rule="nonzero"></path>
                <path d="M48.23,75.48 L48.23,60.07 C48.23,48.63 55.7,42.48 67.14,42.48 C78.86,42.48 86.05,48.25 86.05,60.07 L86.05,75.48 C86.05,87.39 79.81,94.01 67.05,94.01 C54.66,94.01 48.23,87.86 48.23,75.48 M74.89,77.48 L74.89,58.96 C74.89,54.96 72.53,51.96 67.14,51.96 C62.14,51.96 59.39,54.96 59.39,58.96 L59.39,77.46 C59.39,82.57 62.89,84.55 67.05,84.55 C71.21,84.55 74.89,82.28 74.89,77.46" id="Shape" fill="#55575A" fill-rule="nonzero"></path>
                <path d="M7.5,43.52 L13.06,49.65 C15.89,46.16 20.22,42.58 25.22,42.58 C33.6,42.58 39.73,46.82 39.73,59.17 L39.73,92.96 L28.57,92.96 L28.57,59.45 C28.57,55.45 27.25,52 21.57,52 C17.57,52 13.27,55.58 13.09,59.45 L13.09,92.96 L2,92.96 L2,43.52 L7.5,43.52 Z" id="Path" fill="#55575A"></path>
                <polygon id="Path" fill="#55575A" points="107 64.92 110.21 79.33 113.13 64.73 117.94 43.53 128.96 43.53 115.96 93 103.71 93 90.23 43.53 101.82 43.53"></polygon>
                <path d="M135.85,92.96 L146.97,92.96 L146.97,43.52 L135.85,43.52 L135.85,92.96 Z M135.85,37.37 L146.97,37.37 L146.97,26.85 L135.85,26.85 L135.85,37.37 Z" id="Shape" fill="#55575A" fill-rule="nonzero"></path>
                <path d="M217.02,93.96 C208.25,93.96 200.72,90.57 200.72,80.87 L200.72,78.42 L210.72,78.42 L210.72,80.3 C210.72,82.85 213.27,84.73 217.22,84.73 C221.37,84.73 223.73,82.66 223.73,79.55 C223.73,75.21 219.2,73.33 214.21,71.16 C207.9,68.52 200.74,65.41 200.74,56.75 C200.74,49.75 205.26,42.61 217.51,42.61 C228.44,42.61 233.71,48.36 233.71,55.9 L233.71,58.54 L223.91,58.54 L223.91,56.18 C223.91,52.79 220.62,51.85 217.41,51.85 C215.72,51.85 211.85,52.13 211.85,55.85 C211.85,59.25 215.25,60.94 219.39,62.73 C226.08,65.56 234.84,68.57 234.84,79.03 C234.84,87.14 229.47,94.03 217.04,94.03" id="Path" fill="#55575A"></path>
                <path d="M276.96,77.35 C276.96,89.03 269.61,93.93 259.44,93.93 C248.98,93.93 241.44,88.93 241.44,75.47 L241.44,61.05 C241.44,49.05 248.03,42.58 259.81,42.58 C271.12,42.58 276.49,48.33 276.49,59.45 L276.49,61.62 L266.69,61.62 L266.69,58.13 C266.69,54.13 263.87,52 259.69,52 C255.51,52 252.53,54.17 252.53,58.13 L252.53,78.48 C252.53,82.48 255.64,84.48 259.78,84.48 C263.92,84.48 267.13,82.41 267.13,78.48 L267.13,75.48 L276.93,75.48 L276.96,77.35 Z" id="Path" fill="#55575A"></path>
                <path d="M283.86,59.17 C283.86,48.42 291.11,42.58 298.65,42.58 C303.93,42.58 307.51,45.58 310.65,49.18 L316.4,43.52 L321.58,43.52 L321.58,92.96 L316.4,92.96 L310.65,87.21 C307.44,91.08 304.05,93.9 298.3,93.9 C289.92,93.9 283.89,87.78 283.89,77.04 L283.86,59.17 Z M310.43,77.45 L310.43,58.51 C310.43,55.4 306.94,52 302.14,52 C298.14,52 294.98,54.36 294.98,59.26 L294.98,76.96 C294.98,81.86 297.71,84.5 301.76,84.5 C306.66,84.5 310.24,80.5 310.43,77.44 L310.43,77.45 Z" id="Shape" fill="#55575A" fill-rule="nonzero"></path>
                <path d="M337.5,43.52 L343.06,49.65 C345.89,46.16 350.22,42.58 355.22,42.58 C363.6,42.58 369.73,46.82 369.73,59.17 L369.73,92.96 L358.6,92.96 L358.6,59.45 C358.6,55.45 357.28,52 351.6,52 C347.6,52 343.3,55.58 343.11,59.45 L343.11,92.96 L332.03,92.96 L332.03,43.52 L337.5,43.52 Z" id="Path" fill="#55575A"></path>
                <path d="M379.57,53.14 C377.677519,53.1355377 376.129303,51.6315567 376.07,49.74 C376.07,49 376.07,48.28 376.07,47.59 C376.07,43.85 376.07,41.98 373.07,39.04 C369.43,35.49 363.58,35.38 363.52,35.38 C361.689415,35.241522 360.274764,33.7158152 360.274764,31.88 C360.274764,30.0441848 361.689415,28.518478 363.52,28.38 C363.88,28.38 372.24,28.48 377.94,34.04 C383.07,39.04 383.08,43.38 383.1,47.59 C383.1,48.22 383.1,48.87 383.1,49.59 C383.156078,51.5250318 381.634919,53.1401449 379.7,53.2 L379.57,53.14 Z" id="Path" fill="#00B5DE"></path>
                <path d="M394.93,53.14 C393.039491,53.1359188 391.489816,51.6392237 391.42,49.75 L391.37,47.68 C391.17,39.98 391.03,34.42 383.61,27.83 C375.61,20.73 363.86,21.52 363.74,21.53 C361.807003,21.6818782 360.116878,20.2379965 359.965,18.305 C359.813122,16.3720034 361.257003,14.6818784 363.19,14.53 C363.79,14.53 377.98,13.45 388.26,22.53 C397.96,31.13 398.17,39.43 398.38,47.45 L398.43,49.45 C398.491773,51.3851031 396.974991,53.0047947 395.04,53.07 L394.93,53.14 Z" id="Path" fill="#00B5DE"></path>
                <path d="M409.16,53.33 C407.269159,53.3309341 405.719426,51.8299074 405.66,49.94 L405.57,46.94 C405.29,35.94 405.07,27.3 393.84,17.43 C381.73,6.79 364.11,8 363.93,8.02 C361.997003,8.17187821 360.306878,6.72799655 360.155,4.79499999 C360.003122,2.86200343 361.447003,1.17187839 363.38,1.02 C364.22,0.95 384.09,-0.48 398.47,12.15 C412,24.04 412.28,35.07 412.58,46.75 L412.66,49.64 C412.695075,50.5691296 412.357946,51.4738453 411.723398,52.1534493 C411.088851,52.8330533 410.20935,53.2313561 409.28,53.26 L409.16,53.33 Z" id="Path" fill="#00B5DE"></path>
                <g id="Group-2" transform="translate(0.000000, 100.000000)" font-family="RobotoMonoForPowerline-Light, Roboto Mono Light for Powerline" font-size="24.2" font-weight="300" letter-spacing="-0.7865">
                    <text id="continence-managemen" fill="#55575A">
                        <tspan x="82" y="22">continence management</tspan>
                    </text>
                    <text id="smart" fill="#00B5DE">
                        <tspan x="0" y="22">smart</tspan>
                    </text>
                </g>
            </g>
        </g>
    </g>
</svg>